<?xml version="1.0" encoding="UTF-8"?>
<svg width="38pt" height="38pt" version="1.1" viewBox="-5 -5 110 110" xmlns="http://www.w3.org/2000/svg"><g transform="translate(0,-197)"><path d="m0 197v100h100v-100zm36.102 17.578c1.8458 0 3.4846 0.28851 4.9085 0.86863 1.4239 0.58012 2.6156 1.405 3.5824 2.4774 0.98446 1.0548 1.723 2.346 2.2153 3.8754 0.50981 1.5118 0.76583 3.2074 0.76583 5.0884 0 0.65045-0.0081 1.2001-0.0257 1.6396-0.01758 0.43948-0.04708 0.85194-0.08224 1.2387h-18.586c0 2.7072 0.75481 4.7909 2.2667 6.25 1.5118 1.4415 3.6899 2.1587 6.5378 2.1587 0.7735 0 1.5497-0.0244 2.3232-0.0771 0.7735-0.0703 1.5202-0.15665 2.241-0.26213 0.72076-0.10548 1.4055-0.22132 2.0559-0.34437 0.66802-0.14064 1.2826-0.28895 1.8452-0.44716v3.7675c-1.2481 0.35158-2.6633 0.63711-4.2455 0.84806-1.5646 0.22854-3.19 0.33923-4.8777 0.33923-2.2678 0-4.2193-0.30474-5.8542-0.92003-1.6349-0.61528-2.98-1.5073-4.0347-2.6676-1.0372-1.1778-1.8134-2.6092-2.3232-4.2969-0.49223-1.7052-0.73499-3.6273-0.73499-5.772 0-1.8634 0.26414-3.621 0.79153-5.2734 0.54496-1.6701 1.3241-3.131 2.3438-4.3791 1.0372-1.2657 2.3041-2.2684 3.7983-3.0068 1.4943-0.73834 3.1898-1.1051 5.0884-1.1051zm30.669 0c1.0372 0 2.1882 0.062 3.4539 0.18503 1.2657 0.10548 2.5864 0.29439 3.9576 0.57566v4.0913c-1.4415-0.35159-2.8161-0.60761-4.117-0.76583-1.2833-0.1758-2.3967-0.26213-3.346-0.26213-1.1427 0-2.1129 0.0863-2.904 0.26213-0.7735 0.1758-1.4044 0.41856-1.8966 0.735-0.47465 0.29884-0.81701 0.66258-1.028 1.0845-0.21096 0.40433-0.31867 0.84115-0.31867 1.3158 0 0.47465 0.09147 0.90848 0.26727 1.2952 0.19337 0.38675 0.53573 0.76159 1.028 1.1308 0.50981 0.35159 1.2108 0.71533 2.1073 1.0845 0.89656 0.35159 2.0638 0.73454 3.5053 1.1565 1.5646 0.45706 2.8853 0.94475 3.9576 1.4546 1.0724 0.49223 1.943 1.0449 2.611 1.6602 0.66802 0.61529 1.1424 1.3081 1.4237 2.0816 0.29885 0.77349 0.44716 1.6522 0.44716 2.6367 0 0.93172-0.15643 1.7699-0.47286 2.5082-0.31643 0.73834-0.75027 1.3936-1.2952 1.9737-0.54496 0.56255-1.1758 1.0451-1.8966 1.4494-0.72076 0.40433-1.4918 0.73856-2.318 1.0023-0.80866 0.26369-1.6468 0.45774-2.5082 0.5808s-1.7025 0.18503-2.5288 0.18503c-1.7931 0-3.4481-0.0782-4.9599-0.23643-1.4943-0.15821-2.9633-0.41424-4.4048-0.76583v-4.2198c1.547 0.43948 3.0861 0.77373 4.6155 1.0023 1.5294 0.22853 3.0523 0.34437 4.5641 0.34437 2.1974 0 3.8229-0.29663 4.8777-0.89433 1.0548-0.5977 1.5831-1.4521 1.5831-2.5596 0-0.47465-0.09147-0.89522-0.26727-1.2644-0.15821-0.38676-0.45484-0.75049-0.89432-1.0845-0.43949-0.35159-1.1242-0.71019-2.0559-1.0794-0.91414-0.36917-2.1729-0.78974-3.7726-1.2644-1.1954-0.35159-2.3007-0.7478-3.3203-1.1873-1.002-0.45707-1.8727-0.99348-2.611-1.6088-0.73834-0.61529-1.3205-1.3376-1.7424-2.1639-0.42191-0.82624-0.6322-1.7994-0.6322-2.9246 0-0.73834 0.16969-1.547 0.5037-2.426 0.35159-0.87898 0.93672-1.6958 1.763-2.4517s1.9448-1.3838 3.3512-1.876c1.4064-0.5098 3.1639-0.76069 5.2734-0.76069zm-30.88 3.6647c-1.002 0-1.9133 0.19405-2.7395 0.5808-0.82624 0.38675-1.5405 0.93128-2.1382 1.6345-0.5977 0.70318-1.0803 1.5443-1.4494 2.5288-0.36917 0.98445-0.5957 2.0654-0.6836 3.2432h13.919c0.05274-1.1778-0.05795-2.2506-0.33923-3.2175-0.28127-0.98446-0.72322-1.8256-1.3209-2.5288-0.58012-0.70318-1.3106-1.2477-2.1896-1.6344-0.87898-0.40433-1.8979-0.6065-3.0582-0.6065zm5.7874 31.183c1.8283 0 3.8499 0.21028 6.065 0.6322v3.9525c-2.4084-0.50981-4.4788-0.76583-6.2192-0.76583-4.1312 0-6.1986 2.167-6.1986 6.4916v4.6412h11.601v3.8189h-11.601v18.801h-4.6669v-18.801h-8.5167v-3.8189h8.5167v-4.3791c0-7.0494 3.6715-10.573 11.02-10.573zm10.418 11.097h5.8799l6.9593 10.182 6.8308-10.182h5.6692l-9.9404 13.292 10.362 13.184h-6.0907l-7.1443-10.1-7.0672 10.1h-5.9313l10.254-13.286z" fill="#000" stroke-width=".27778"/></g></svg>