<?xml version="1.0" encoding="UTF-8"?>
<svg width="128" height="128" version="1.1" viewBox="0 0 100 100" xmlns="http://www.w3.org/2000/svg" style="background-color: white">
    <g transform="matrix(1,0,0,1,0,-197)"><path d="M 0 197 v 100 h 100 v -100 z m 36.1 17.6 c 1.8 0 3.5 0.3 4.9 0.9 c 1.4 0.6 2.6 1.4 3.6 2.5 c 1 1.1 1.7 2.3 2.2 3.9 c 0.5 1.5 0.8 3.2 0.8 5.1 c 0 0.7 0 1.2 0 1.6 c 0 0.4 0 0.9 -0.1 1.2 h -18.6 c 0 2.7 0.8 4.8 2.3 6.3 c 1.5 1.4 3.7 2.2 6.5 2.2 c 0.8 0 1.5 0 2.3 -0.1 c 0.8 -0.1 1.5 -0.2 2.2 -0.3 c 0.7 -0.1 1.4 -0.2 2.1 -0.3 c 0.7 -0.1 1.3 -0.3 1.8 -0.4 v 3.8 c -1.2 0.4 -2.7 0.6 -4.2 0.8 c -1.6 0.2 -3.2 0.3 -4.9 0.3 c -2.3 0 -4.2 -0.3 -5.9 -0.9 c -1.6 -0.6 -3 -1.5 -4 -2.7 c -1 -1.2 -1.8 -2.6 -2.3 -4.3 c -0.5 -1.7 -0.7 -3.6 -0.7 -5.8 c 0 -1.9 0.3 -3.6 0.8 -5.3 c 0.5 -1.7 1.3 -3.1 2.3 -4.4 c 1 -1.3 2.3 -2.3 3.8 -3 c 1.5 -0.7 3.2 -1.1 5.1 -1.1 z m 30.7 0 c 1 0 2.2 0.1 3.5 0.2 c 1.3 0.1 2.6 0.3 4 0.6 v 4.1 c -1.4 -0.4 -2.8 -0.6 -4.1 -0.8 c -1.3 -0.2 -2.4 -0.3 -3.3 -0.3 c -1.1 0 -2.1 0.1 -2.9 0.3 c -0.8 0.2 -1.4 0.4 -1.9 0.7 c -0.5 0.3 -0.8 0.7 -1 1.1 c -0.2 0.4 -0.3 0.8 -0.3 1.3 c 0 0.5 0.1 0.9 0.3 1.3 c 0.2 0.4 0.5 0.8 1 1.1 c 0.5 0.4 1.2 0.7 2.1 1.1 c 0.9 0.4 2.1 0.7 3.5 1.2 c 1.6 0.5 2.9 0.9 4 1.5 c 1.1 0.5 1.9 1 2.6 1.7 c 0.7 0.6 1.1 1.3 1.4 2.1 c 0.3 0.8 0.4 1.7 0.4 2.6 c 0 0.9 -0.2 1.8 -0.5 2.5 c -0.3 0.7 -0.8 1.4 -1.3 2 c -0.5 0.6 -1.2 1 -1.9 1.4 c -0.7 0.4 -1.5 0.7 -2.3 1 c -0.8 0.3 -1.6 0.5 -2.5 0.6 s -1.7 0.2 -2.5 0.2 c -1.8 0 -3.4 -0.1 -5 -0.2 c -1.5 -0.2 -3 -0.4 -4.4 -0.8 v -4.2 c 1.5 0.4 3.1 0.8 4.6 1 c 1.5 0.2 3.1 0.3 4.6 0.3 c 2.2 0 3.8 -0.3 4.9 -0.9 c 1.1 -0.6 1.6 -1.5 1.6 -2.6 c 0 -0.5 -0.1 -0.9 -0.3 -1.3 c -0.2 -0.4 -0.5 -0.8 -0.9 -1.1 c -0.4 -0.4 -1.1 -0.7 -2.1 -1.1 c -0.9 -0.4 -2.2 -0.8 -3.8 -1.3 c -1.2 -0.4 -2.3 -0.7 -3.3 -1.2 c -1 -0.5 -1.9 -1 -2.6 -1.6 c -0.7 -0.6 -1.3 -1.3 -1.7 -2.2 c -0.4 -0.8 -0.6 -1.8 -0.6 -2.9 c 0 -0.7 0.2 -1.5 0.5 -2.4 c 0.4 -0.9 0.9 -1.7 1.8 -2.5 s 1.9 -1.4 3.4 -1.9 c 1.4 -0.5 3.2 -0.8 5.3 -0.8 z m -30.9 3.7 c -1 0 -1.9 0.2 -2.7 0.6 c -0.8 0.4 -1.5 0.9 -2.1 1.6 c -0.6 0.7 -1.1 1.5 -1.4 2.5 c -0.4 1 -0.6 2.1 -0.7 3.2 h 13.9 c 0.1 -1.2 -0.1 -2.3 -0.3 -3.2 c -0.3 -1 -0.7 -1.8 -1.3 -2.5 c -0.6 -0.7 -1.3 -1.2 -2.2 -1.6 c -0.9 -0.4 -1.9 -0.6 -3.1 -0.6 z m 5.8 31.2 c 1.8 0 3.8 0.2 6.1 0.6 v 4 c -2.4 -0.5 -4.5 -0.8 -6.2 -0.8 c -4.1 0 -6.2 2.2 -6.2 6.5 v 4.6 h 11.6 v 3.8 h -11.6 v 18.8 h -4.7 v -18.8 h -8.5 v -3.8 h 8.5 v -4.4 c 0 -7 3.7 -10.6 11 -10.6 z m 10.4 11.1 h 5.9 l 7 10.2 l 6.8 -10.2 h 5.7 l -9.9 13.3 l 10.4 13.2 h -6.1 l -7.1 -10.1 l -7.1 10.1 h -5.9 l 10.3 -13.3 z" fill="#ff7900" stroke-width=".27778"/></g>
</svg>