<?xml version="1.0" encoding="UTF-8" standalone="no"?>
<svg
   xmlns:dc="http://purl.org/dc/elements/1.1/"
   xmlns:cc="http://creativecommons.org/ns#"
   xmlns:rdf="http://www.w3.org/1999/02/22-rdf-syntax-ns#"
   xmlns:svg="http://www.w3.org/2000/svg"
   xmlns="http://www.w3.org/2000/svg"
   xmlns:sodipodi="http://sodipodi.sourceforge.net/DTD/sodipodi-0.dtd"
   xmlns:inkscape="http://www.inkscape.org/namespaces/inkscape"
   width="32"
   height="32"
   version="1.1"
   viewBox="0 0 8.4666666 8.4666666"
   id="svg283"
   sodipodi:docname="favicon.svg"
   inkscape:version="0.92.4 (5da689c313, 2019-01-14)">
  <metadata
     id="metadata289">
    <rdf:RDF>
      <cc:Work
         rdf:about="">
        <dc:format>image/svg+xml</dc:format>
        <dc:type
           rdf:resource="http://purl.org/dc/dcmitype/StillImage" />
        <dc:title></dc:title>
      </cc:Work>
    </rdf:RDF>
  </metadata>
  <defs
     id="defs287" />
  <sodipodi:namedview
     pagecolor="#ffffff"
     bordercolor="#666666"
     borderopacity="1"
     objecttolerance="10"
     gridtolerance="10"
     guidetolerance="10"
     inkscape:pageopacity="0"
     inkscape:pageshadow="2"
     inkscape:window-width="1500"
     inkscape:window-height="937"
     id="namedview285"
     showgrid="false"
     units="px"
     inkscape:zoom="0.9763125"
     inkscape:cx="188.97638"
     inkscape:cy="188.97638"
     inkscape:window-x="-8"
     inkscape:window-y="-8"
     inkscape:window-maximized="1"
     inkscape:current-layer="svg283" />
  <g
     transform="matrix(0.08466667,0,0,0.08466667,0,-16.679334)"
     id="g281">
    <path
       d="M 0,197 H 100 V 297 H 0 Z"
       id="path267"
       inkscape:connector-curvature="0"
       style="fill:#ff7900;stroke-width:0.27778" />
    <g
       aria-label="es"
       id="g273"
       style="fill:#ffffff;stroke-width:1.33940005">
      <path
         d="m 47.574,226.89 q 0,0.97567 -0.02637,1.6349 -0.02637,0.65923 -0.07911,1.2394 h -18.59 q 0,4.0609 2.2678,6.2495 2.2678,2.1623 6.5396,2.1623 1.1602,0 2.3205,-0.0791 1.1602,-0.10547 2.2414,-0.26369 1.0812,-0.15822 2.0568,-0.3428 1.002,-0.21096 1.8458,-0.44828 v 3.7708 q -1.8722,0.52739 -4.2455,0.84382 -2.3469,0.3428 -4.8783,0.3428 -3.4016,0 -5.854,-0.92293 -2.4523,-0.92292 -4.0345,-2.6633 -1.5558,-1.7667 -2.3205,-4.2982 -0.73834,-2.5578 -0.73834,-5.7749 0,-2.7952 0.79108,-5.2739 0.81745,-2.5051 2.3469,-4.3773 1.5558,-1.8986 3.7972,-3.0061 2.2414,-1.1075 5.0893,-1.1075 2.7688,0 4.9047,0.87018 2.1359,0.87019 3.5862,2.4787 1.4767,1.5822 2.215,3.8763 0.76471,2.2678 0.76471,5.0893 z m -4.7728,-0.65923 q 0.07911,-1.7667 -0.3428,-3.217 -0.42191,-1.4767 -1.3185,-2.5314 -0.87019,-1.0548 -2.1887,-1.6349 -1.3185,-0.60649 -3.0588,-0.60649 -1.503,0 -2.7424,0.58012 -1.2394,0.58013 -2.1359,1.6349 -0.8965,1.05477 -1.4503,2.5314 -0.5538,1.47663 -0.6856,3.2434 z"
         id="path269"
         inkscape:connector-curvature="0" />
      <path
         d="m 75.921,234.3 q 0,1.3976 -0.47465,2.5051 -0.47465,1.1075 -1.2921,1.9777 -0.81745,0.84382 -1.8986,1.4503 -1.0811,0.6065 -2.3205,1.002 -1.213,0.39554 -2.5051,0.58012 -1.2921,0.18459 -2.5315,0.18459 -2.6897,0 -4.9574,-0.23733 -2.2414,-0.23732 -4.4037,-0.76471 v -4.2191 q 2.3205,0.65923 4.6146,1.002 2.2941,0.34277 4.5619,0.3428 3.2962,0 4.8783,-0.89655 1.5822,-0.89656 1.5822,-2.5578 0,-0.71198 -0.26369,-1.2657 -0.23732,-0.58013 -0.89656,-1.0811 -0.65923,-0.52739 -2.0568,-1.0811 -1.3712,-0.55376 -3.7708,-1.2657 -1.7931,-0.52738 -3.3225,-1.1866 -1.503,-0.6856 -2.6106,-1.6085 -1.1075,-0.92293 -1.7404,-2.1623 -0.63286,-1.2394 -0.63286,-2.927 0,-1.1075 0.50102,-2.426 0.52738,-1.3185 1.7667,-2.4523 1.2394,-1.1339 3.3489,-1.8722 2.1095,-0.76471 5.2739,-0.76471 1.5558,0 3.4544,0.18458 1.8986,0.15822 3.9554,0.58013 v 4.0872 q -2.1623,-0.52739 -4.1136,-0.76471 -1.925,-0.2637 -3.3489,-0.2637 -1.714,0 -2.9006,0.2637 -1.1602,0.26369 -1.8986,0.73834 -0.71197,0.44827 -1.0284,1.0811 -0.31643,0.60649 -0.31643,1.3185 0,0.71201 0.26369,1.2921 0.29006,0.58012 1.0284,1.1339 0.76471,0.52738 2.1095,1.0811 1.3448,0.52738 3.5071,1.1602 2.3469,0.6856 3.9554,1.4503 1.6085,0.73834 2.6106,1.6613 1.002,0.92293 1.4239,2.0832 0.44828,1.1602 0.44828,2.6369 z"
         id="path271"
         inkscape:connector-curvature="0" />
    </g>
    <g
       aria-label="fx"
       id="g279"
       style="fill:#ffffff;stroke-width:1.33940005">
      <path
         d="m 47.746,254.01 q -3.6126,-0.76471 -6.2232,-0.76471 -6.1968,0 -6.1968,6.4868 v 4.641 h 11.602 v 3.8236 H 35.326 v 18.801 h -4.6674 v -18.801 h -8.5173 v -3.8236 h 8.5173 v -4.3773 q 0,-10.574 11.022,-10.574 2.7424,0 6.0649,0.63287 z"
         id="path275"
         inkscape:connector-curvature="0" />
      <path
         d="M 77.859,287 H 71.7677 L 64.6216,276.901 57.5546,287 h -5.9331 l 10.258,-13.29 -9.783,-13.185 h 5.8804 l 6.9615,10.179 6.8296,-10.179 h 5.6694 l -9.9412,13.29 z"
         id="path277"
         inkscape:connector-curvature="0" />
    </g>
  </g>
</svg>
